Coordinates
version=1
nRows=60
nColumns=12
inDegrees=yes

Units are S.I. units (second, meters, Newtons, ...)
Angles are in degrees

endheader
time	SC_y	SC_z	SC_x	AC_y	AC_z	AC_x	GH_y	GH_z	GH_yy	EL_x	PS_y
       0.0              -13.79          33.11          50.88          32.73          2.484          4.132         -83.03          68.69         -43.71          42.75          23.32
   0.04167              -13.79          33.11          50.88          32.74          2.484          4.131         -83.03          68.69         -43.69          42.76          23.34
   0.08333              -13.79          33.11          50.88          32.74          2.484           4.13         -83.03          68.68         -43.67          42.76          23.36
     0.125              -13.79           33.1          50.89          32.74          2.484          4.129         -83.04          68.68         -43.64          42.77          23.38
    0.1667              -13.79           33.1          50.89          32.74          2.484          4.128         -83.04          68.67         -43.61          42.78           23.4
    0.2083               -13.8           33.1          50.89          32.74          2.484          4.127         -83.05          68.67         -43.58          42.79          23.42
      0.25               -13.8          33.09          50.89          32.74          2.485          4.126         -83.05          68.66         -43.55           42.8          23.44
    0.2917               -13.8          33.09          50.89          32.74          2.485          4.125         -83.05          68.65         -43.52          42.81          23.46
    0.3333               -13.8          33.09           50.9          32.74          2.485          4.124         -83.06          68.65         -43.48          42.83          23.49
     0.375               -13.8          33.08           50.9          32.74          2.485          4.122         -83.07          68.64         -43.44          42.84          23.52
    0.4167               -13.8          33.08           50.9          32.74          2.485          4.121         -83.07          68.63          -43.4          42.85          23.55
    0.4583               -13.8          33.08           50.9          32.75          2.486          4.119         -83.08          68.62         -43.36          42.87          23.58
       0.5               -13.8          33.07          50.91          32.75          2.486          4.118         -83.08          68.61         -43.31          42.88          23.61
    0.5417               -13.8          33.07          50.91          32.75          2.486          4.116         -83.09           68.6         -43.26           42.9          23.65
    0.5833               -13.8          33.06          50.91          32.75          2.486          4.114          -83.1          68.59          -43.2          42.92          23.69
     0.625               -13.8          33.05          50.92          32.75          2.487          4.112         -83.11          68.58         -43.14          42.94          23.73
    0.6667              -13.81          33.05          50.92          32.75          2.487           4.11         -83.12          68.57         -43.07          42.96          23.78
    0.7083              -13.81          33.04          50.92          32.76          2.487          4.107         -83.13          68.56          -43.0          42.99          23.83
      0.75              -13.81          33.03          50.93          32.76          2.488          4.105         -83.14          68.54         -42.92          43.01          23.88
    0.7917              -13.81          33.02          50.93          32.76          2.488          4.102         -83.15          68.53         -42.84          43.04          23.95
    0.8333              -13.81          33.01          50.94          32.76          2.489          4.098         -83.17          68.51         -42.74          43.08          24.01
     0.875              -13.81           33.0          50.95          32.77          2.489          4.095         -83.18          68.49         -42.64          43.11          24.09
    0.9167              -13.82          32.99          50.95          32.77           2.49          4.091          -83.2          68.47         -42.52          43.15          24.17
    0.9584              -13.82          32.98          50.96          32.77           2.49          4.086         -83.22          68.44         -42.39          43.19          24.26
       1.0              -13.82          32.97          50.97          32.78          2.491          4.082         -83.24          68.42         -42.25          43.24          24.36
     1.042              -13.82          32.95          50.98          32.78          2.492          4.076         -83.26          68.39         -42.09          43.29          24.47
     1.083              -13.83          32.93          50.99          32.79          2.493           4.07         -83.29          68.35         -41.92          43.35           24.6
     1.125              -13.83          32.91           51.0          32.79          2.494          4.063         -83.32          68.32         -41.72          43.42          24.74
     1.167              -13.84          32.89          51.02           32.8          2.495          4.055         -83.35          68.27         -41.49           43.5           24.9
     1.208              -13.84          32.87          51.03          32.81          2.496          4.047         -83.39          68.23         -41.23          43.58          25.08
      1.25              -13.85          32.84          51.05          32.82          2.497          4.037         -83.43          68.17         -40.94          43.68          25.28
     1.292              -13.85          32.81          51.07          32.83          2.499          4.025         -83.48          68.11         -40.61          43.79          25.52
     1.333              -13.86          32.77           51.1          32.84          2.501          4.012         -83.53          68.04         -40.22          43.92           25.8
     1.375              -13.87          32.72          51.12          32.85          2.503          3.996          -83.6          67.95         -39.77          44.08          26.11
     1.417              -13.88          32.67          51.16          32.87          2.506          3.978         -83.68          67.85         -39.24          44.25          26.49
     1.458              -13.89          32.61          51.19          32.89          2.509          3.957         -83.77          67.74         -38.62          44.46          26.93
       1.5              -13.91          32.54          51.24          32.91          2.513          3.932         -83.87           67.6         -37.89          44.71          27.45
     1.542              -13.92          32.45           51.3          32.94          2.517          3.902          -84.0          67.44          -37.0          45.01          28.07
     1.583              -13.94          32.35          51.36          32.97          2.522          3.865         -84.16          67.24         -35.93          45.37          28.83
     1.625              -13.97          32.22          51.44          33.01          2.529           3.82         -84.35          66.99         -34.63          45.81          29.75
     1.667               -14.0          32.06          51.54          33.05          2.537          3.765         -84.58          66.69         -33.01          46.35          30.89
     1.708              -14.04          31.86          51.67          33.11          2.547          3.696         -84.88          66.31          -31.0          47.03          32.32
      1.75              -14.09          31.62          51.82          33.19          2.559          3.609         -85.25          65.84         -28.47          47.88          34.11
     1.792              -14.15           31.3          52.02          33.29          2.575          3.499         -85.71          65.24         -25.25          48.96          36.39
     1.833              -14.23           30.9          52.28          33.41          2.596          3.357         -86.31          64.47         -21.13          50.35           39.3
     1.875              -14.34          30.38           52.6          33.57          2.622          3.176         -87.08          63.48         -15.84          52.13          43.04
     1.917              -14.47          29.71          53.02          33.77          2.655          2.944         -88.07          62.22         -9.084          54.41          47.82
     1.958              -14.63          28.88          53.54          34.02          2.698          2.653          -89.3          60.63        -0.5892          57.27          53.83
       2.0              -14.83          27.87          54.18          34.33          2.749          2.298         -90.81           58.7          9.763          60.75          61.16
     2.042              -15.07          26.69          54.92          34.69          2.808          1.886         -92.56          56.45          21.76          64.79          69.65
     2.083              -15.32          25.42          55.73          35.08          2.873          1.441         -94.45          54.03          34.75          69.16          78.84
     2.125              -15.57          24.14          56.53          35.47          2.937         0.9954         -96.34           51.6          47.75          73.54          88.03
     2.167               -15.8          22.97          57.27          35.82          2.997          0.584         -98.09          49.36          59.75          77.58          96.52
     2.208              -16.01          21.95          57.91          36.13          3.048          0.229          -99.6          47.42           70.1          81.06          103.8
      2.25              -16.17          21.12          58.43          36.39           3.09       -0.06228         -100.8          45.84          78.59          83.92          109.9
     2.292               -16.3          20.45          58.85          36.59          3.124        -0.2939         -101.8          44.57          85.35           86.2          114.6
     2.333              -16.41          19.94          59.18          36.75           3.15        -0.4753         -102.6          43.58          90.64          87.98          118.4
     2.375              -16.49          19.53          59.43          36.87           3.17        -0.6166         -103.2          42.81          94.76          89.36          121.3
     2.417              -16.55          19.22          59.63          36.97          3.186         -0.727         -103.7          42.21          97.98          90.45          123.6
     2.458               -16.6          18.97          59.79          37.04          3.199        -0.8139         -104.0          41.74          100.5           91.3          125.4
